<svg width="551" height="502" viewBox="0 0 551 502" fill="none" xmlns="http://www.w3.org/2000/svg">
<path d="M155.701 132.384L48.552 168.167L155.701 206.259V227.325L0 172.207V118.244L155.701 63.1257V132.384Z" fill="#ECEFF4"/>
<path d="M274.872 62.75L171.667 15.6875L378.077 15.6875L274.872 62.75Z" fill="#ECEFF4"/>
<path d="M273.992 73.2083L325.892 418.333H227.629L273.992 73.2083Z" fill="#ECEFF4"/>
<path d="M356.35 146.417H356.201L298.779 97.2979L285.189 146.417H264.066L250.477 97.2979L193.818 145.763L274.872 20.917L356.35 146.417Z" fill="#ECEFF4"/>
<path d="M277.812 502L227.635 418.333H326.731L277.812 502Z" fill="#ECEFF4"/>
<path d="M551 118.244V172.207L395.299 227.325V158.067L502.169 122.284L395.299 84.1917V63.1257L551 118.244Z" fill="#ECEFF4"/>
</svg>
